<svg width="55" height="88" fill="none" xmlns="http://www.w3.org/2000/svg"><path d="M38.942 14.759h-3.05a.769.769 0 00-.761.762v20.303a7.6 7.6 0 01-7.622 7.622 7.6 7.6 0 01-7.622-7.622V15.52a.769.769 0 00-.763-.762h-3.048a.769.769 0 00-.763.762v20.303c0 6.652 5.336 12.056 11.988 12.195h.554c6.583-.139 11.988-5.543 11.988-12.195V15.52a.901.901 0 00-.901-.762z" fill="#000"/><path d="M53.77.277H1.317a.947.947 0 00-.97.97V87.03c0 .554.415.97.97.97H53.77c.554 0 .97-.416.97-.97V1.247a.947.947 0 00-.97-.97zM4.781 5.682v-.485c0-.277.208-.555.554-.555H49.89c.277 0 .554.208.554.555V44.9L28.34 67.005l-.346.346a.544.544 0 01-.762 0l-.347-.346L4.781 44.9V5.68zm45.525 76.913v.485a.547.547 0 01-.555.555H5.266a.547.547 0 01-.554-.555V51.137L26.816 73.24c.346.346.97.346 1.386 0l22.104-22.104v31.458z" fill="#000"/></svg>