<svg width="265" height="41" fill="none" xmlns="http://www.w3.org/2000/svg"><path fill-rule="evenodd" clip-rule="evenodd" d="M27.789 1.437h-3.57c-.5 0-.906.406-.906.908v23.799l-.016.072c0 4.947-4.015 8.973-8.95 8.973s-8.95-4.026-8.95-8.973l-.016-.072V2.345a.907.907 0 00-.906-.908H.905c-.5 0-.905.406-.905.908v23.87c0 7.829 6.27 14.212 14.039 14.377.103.003.205.008.308.008.103 0 .206-.005.309-.008 7.768-.165 14.038-6.548 14.038-14.376V2.345a.906.906 0 00-.905-.908zM81.54 20.595H63.335c-.504 0-.913.4-.913.892v3.215c0 .493.409.893.913.893h9.44a13.589 13.589 0 01-1.084 3.28 10.252 10.252 0 01-2.457 3.24c-1.02.896-2.27 1.602-3.722 2.1-1.468.504-3.162.76-5.037.76-2.446 0-4.616-.42-6.447-1.247-1.838-.83-3.388-1.936-4.611-3.287a14.058 14.058 0 01-2.804-4.681 16.166 16.166 0 01-.958-5.514c0-1.962.339-3.874 1.008-5.684.666-1.801 1.628-3.403 2.858-4.763 1.225-1.353 2.744-2.457 4.515-3.278 1.76-.817 3.778-1.23 5.997-1.23 1.395 0 2.724.171 3.951.51 1.225.338 2.32.798 3.252 1.367a8.768 8.768 0 012.315 2.017c.622.784 1.077 1.614 1.354 2.47a.91.91 0 00.87.623h3.633a.921.921 0 00.709-.332.874.874 0 00.182-.748 11.935 11.935 0 00-1.912-4.306c-.93-1.323-2.122-2.488-3.54-3.464-1.41-.971-3.057-1.737-4.895-2.278-1.83-.536-3.838-.81-5.969-.81-3.05 0-5.822.562-8.244 1.668-2.408 1.1-4.501 2.593-6.219 4.434a19.196 19.196 0 00-3.944 6.383 21.198 21.198 0 00-1.346 7.472c0 2.523.435 4.985 1.294 7.316a18.589 18.589 0 003.867 6.286c1.704 1.828 3.825 3.314 6.306 4.414 2.486 1.103 5.395 1.662 8.648 1.662 2.574 0 4.932-.367 7.01-1.089 2.09-.728 3.934-1.774 5.48-3.11a15.943 15.943 0 003.764-4.813c.835-1.628 1.42-3.431 1.744-5.368h3.197c.505 0 .913-.4.913-.893v-3.215a.903.903 0 00-.913-.892zM130.036 2.05h-3.516a.92.92 0 00-.845.54s-12.51 26.985-12.768 27.628c-.109.272-.303.431-.514.423-.21.008-.405-.15-.514-.423-.258-.643-12.767-27.629-12.767-27.629a.92.92 0 00-.845-.539H94.75c-.506 0-.917.398-.917.889v36.147c0 .491.411.889.917.889h3.621c.507 0 .918-.398.918-.89V17.56c0-.459.56-.45.678-.16.303.747 10.107 22.029 10.107 22.029.141.33.477.546.847.546h2.945c.37 0 .705-.216.846-.546 0 0 9.804-21.282 10.108-22.028.118-.291.677-.3.677.159v21.526c0 .491.412.889.918.889h3.621a.903.903 0 00.917-.89V2.939c0-.49-.41-.888-.917-.888zm46.067 24.576a14.81 14.81 0 01-2.816 4.755c-1.206 1.367-2.714 2.484-4.475 3.322-1.753.832-3.744 1.254-5.919 1.254-2.209 0-4.203-.421-5.927-1.252-1.739-.838-3.228-1.955-4.43-3.321a14.93 14.93 0 01-2.802-4.758 16.334 16.334 0 01-.987-5.626c0-1.946.333-3.848.987-5.654.652-1.8 1.594-3.408 2.802-4.78 1.202-1.367 2.69-2.48 4.427-3.307 1.725-.825 3.721-1.242 5.93-1.242 2.192 0 4.189.418 5.933 1.242 1.752.83 3.254 1.942 4.461 3.309a14.724 14.724 0 012.815 4.778c.655 1.806.988 3.709.988 5.654a16.34 16.34 0 01-.987 5.626zm1.146-19.49c-1.681-1.833-3.752-3.324-6.157-4.433-2.417-1.114-5.175-1.678-8.199-1.678-3.021 0-5.78.564-8.201 1.678-2.412 1.109-4.489 2.6-6.175 4.433a19.057 19.057 0 00-3.869 6.39A21.702 21.702 0 00143.327 21c0 2.58.445 5.1 1.321 7.487a19.241 19.241 0 003.868 6.388c1.685 1.842 3.764 3.339 6.176 4.448 2.421 1.112 5.18 1.677 8.201 1.677 3.024 0 5.782-.565 8.199-1.678 2.405-1.108 4.478-2.605 6.158-4.448 1.677-1.838 2.986-3.99 3.894-6.392A21.097 21.097 0 00182.51 21c0-2.566-.46-5.083-1.366-7.482-.908-2.405-2.219-4.55-3.895-6.381zm44.572-5.086h-3.562a.897.897 0 00-.904.889v26.248c0 .212-.225.336-.401.035-.177-.301-16.449-26.744-16.449-26.744a.906.906 0 00-.772-.428h-3.947a.896.896 0 00-.903.889v36.147c0 .491.405.889.903.889h3.561a.896.896 0 00.903-.89v-26.16c0-.388.268-.36.371-.194.101.167 16.48 26.815 16.48 26.815a.907.907 0 00.774.429h3.946a.896.896 0 00.903-.89V2.939a.896.896 0 00-.903-.888zm25.143 18.609L264.26 2.983a.906.906 0 00.187-.98.894.894 0 00-.825-.551h-4.516a.892.892 0 00-.635.265L243 17.38V2.351c0-.498-.4-.9-.894-.9h-3.527a.897.897 0 00-.894.9v36.615c0 .497.401.9.894.9h3.527a.897.897 0 00.894-.9V23.939l15.471 15.663c.168.17.397.265.635.265h4.516c.36 0 .686-.218.825-.552a.908.908 0 00-.187-.98l-17.296-17.676z" fill="#000"/></svg>